<mxfile host="app.diagrams.net" modified="2021-02-23T09:35:07.261Z" agent="5.0 (Windows NT 10.0; WOW64) AppleWebKit/537.36 (KHTML, like Gecko) Chrome/88.0.4324.182 Safari/537.36" etag="LI7xIGKZHzI9gqTv5pGK" version="14.4.2" type="github">
  <diagram id="prtHgNgQTEPvFCAcTncT" name="Page-1">
    <mxGraphModel dx="868" dy="450" grid="1" gridSize="10" guides="1" tooltips="1" connect="1" arrows="1" fold="1" page="1" pageScale="1" pageWidth="827" pageHeight="1169" math="0" shadow="0">
      <root>
        <mxCell id="0" />
        <mxCell id="1" parent="0" />
        <mxCell id="B2XO-9viWH7zZC_KhTM4-8" value="&lt;b style=&quot;line-height: 130%&quot;&gt;&lt;font style=&quot;font-size: 14px&quot;&gt;HotSpot虚拟机的堆栈关系&lt;/font&gt;&lt;/b&gt;" style="rounded=0;whiteSpace=wrap;html=1;align=center;fillColor=#dae8fc;strokeColor=#6c8ebf;" parent="1" vertex="1">
          <mxGeometry x="30" y="20" width="220" height="40" as="geometry" />
        </mxCell>
        <mxCell id="BRjw6HZzTM2X6l6mecIu-10" style="edgeStyle=orthogonalEdgeStyle;rounded=0;orthogonalLoop=1;jettySize=auto;html=1;" parent="1" source="BRjw6HZzTM2X6l6mecIu-1" edge="1">
          <mxGeometry relative="1" as="geometry">
            <mxPoint x="360" y="260" as="targetPoint" />
            <Array as="points">
              <mxPoint x="360" y="260" />
            </Array>
          </mxGeometry>
        </mxCell>
        <mxCell id="BRjw6HZzTM2X6l6mecIu-1" value="&lt;b&gt;&lt;font style=&quot;font-size: 14px&quot;&gt;栈&lt;/font&gt;&lt;/b&gt;&lt;br&gt;&lt;br&gt;&lt;br&gt;&lt;br&gt;&lt;br&gt;&lt;br&gt;Object obj = new Object()" style="rounded=0;whiteSpace=wrap;html=1;align=center;verticalAlign=top;fillColor=#d5e8d4;strokeColor=#82b366;" parent="1" vertex="1">
          <mxGeometry x="100" y="160" width="160" height="240" as="geometry" />
        </mxCell>
        <mxCell id="BRjw6HZzTM2X6l6mecIu-5" value="&lt;span style=&quot;font-size: 14px&quot;&gt;&lt;b&gt;堆&lt;/b&gt;&lt;/span&gt;&lt;br&gt;&lt;br&gt;&lt;br&gt;&lt;br&gt;&lt;br&gt;&lt;br&gt;" style="rounded=0;whiteSpace=wrap;html=1;align=center;verticalAlign=top;fillColor=#e1d5e7;strokeColor=#9673a6;" parent="1" vertex="1">
          <mxGeometry x="400" y="160" width="170" height="240" as="geometry" />
        </mxCell>
        <mxCell id="BRjw6HZzTM2X6l6mecIu-6" value="obj对象实例" style="rounded=1;whiteSpace=wrap;html=1;align=center;" parent="1" vertex="1">
          <mxGeometry x="420" y="250" width="130" height="30" as="geometry" />
        </mxCell>
        <mxCell id="BRjw6HZzTM2X6l6mecIu-7" value="..." style="rounded=1;whiteSpace=wrap;html=1;align=center;" parent="1" vertex="1">
          <mxGeometry x="420" y="280" width="130" height="30" as="geometry" />
        </mxCell>
        <mxCell id="BRjw6HZzTM2X6l6mecIu-8" value="..." style="rounded=1;whiteSpace=wrap;html=1;align=center;" parent="1" vertex="1">
          <mxGeometry x="420" y="310" width="130" height="30" as="geometry" />
        </mxCell>
        <mxCell id="BRjw6HZzTM2X6l6mecIu-9" value="..." style="rounded=1;whiteSpace=wrap;html=1;align=center;" parent="1" vertex="1">
          <mxGeometry x="420" y="340" width="130" height="30" as="geometry" />
        </mxCell>
        <UserObject label="0x1f23" placeholders="1" name="Variable" id="BRjw6HZzTM2X6l6mecIu-12">
          <mxCell style="text;html=1;strokeColor=none;fillColor=none;align=center;verticalAlign=middle;whiteSpace=wrap;overflow=hidden;" parent="1" vertex="1">
            <mxGeometry x="350" y="250" width="60" height="20" as="geometry" />
          </mxCell>
        </UserObject>
        <UserObject label="0x2f23" placeholders="1" name="Variable" id="BRjw6HZzTM2X6l6mecIu-13">
          <mxCell style="text;html=1;strokeColor=none;fillColor=none;align=center;verticalAlign=middle;whiteSpace=wrap;overflow=hidden;" parent="1" vertex="1">
            <mxGeometry x="350" y="285" width="60" height="20" as="geometry" />
          </mxCell>
        </UserObject>
        <UserObject label="0x3f23" placeholders="1" name="Variable" id="BRjw6HZzTM2X6l6mecIu-14">
          <mxCell style="text;html=1;strokeColor=none;fillColor=none;align=center;verticalAlign=middle;whiteSpace=wrap;overflow=hidden;" parent="1" vertex="1">
            <mxGeometry x="350" y="320" width="60" height="20" as="geometry" />
          </mxCell>
        </UserObject>
        <UserObject label="0x4f23" placeholders="1" name="Variable" id="BRjw6HZzTM2X6l6mecIu-15">
          <mxCell style="text;html=1;strokeColor=none;fillColor=none;align=center;verticalAlign=middle;whiteSpace=wrap;overflow=hidden;" parent="1" vertex="1">
            <mxGeometry x="350" y="350" width="60" height="20" as="geometry" />
          </mxCell>
        </UserObject>
      </root>
    </mxGraphModel>
  </diagram>
</mxfile>
